<?xml version="1.0" encoding="UTF-8" standalone="no"?>
<!DOCTYPE svg PUBLIC "-//W3C//DTD SVG 1.1//EN" "http://www.w3.org/Graphics/SVG/1.1/DTD/svg11.dtd">
<svg width="100%" height="100%" viewBox="0 0 100 100" version="1.1" xmlns="http://www.w3.org/2000/svg" xmlns:xlink="http://www.w3.org/1999/xlink" xml:space="preserve" style="fill-rule:evenodd;clip-rule:evenodd;stroke-linejoin:round;stroke-miterlimit:1.41421;">
    <g transform="matrix(1.1039,0,0,1,-5.19481,0)">
        <path d="M93.094,50.507L92.056,53.25L73.679,53.25L73.679,97.25L26.321,97.25L26.321,53.25L7.944,53.25L6.906,50.507L50,2.377L93.094,50.507ZM18.549,46.75L32.209,46.75L32.209,90.75L67.791,90.75L67.791,50L67.795,49.918L67.795,49.835L67.803,49.753L67.806,49.671L67.818,49.59L67.825,49.508L67.84,49.427L67.851,49.346L67.87,49.266L67.885,49.185L67.907,49.107L67.926,49.027L67.952,48.95L67.974,48.871L68.004,48.796L68.03,48.718L68.063,48.644L68.092,48.569L68.128,48.497L68.161,48.423L68.201,48.353L68.237,48.281L68.279,48.213L68.319,48.143L68.365,48.078L68.407,48.011L68.456,47.948L68.501,47.883L68.553,47.823L68.601,47.761L68.655,47.704L68.707,47.644L68.764,47.591L68.818,47.534L68.877,47.484L68.933,47.43L68.994,47.383L69.053,47.333L69.117,47.289L69.178,47.242L69.243,47.202L69.307,47.158L69.373,47.122L69.439,47.082L69.507,47.05L69.574,47.013L69.644,46.985L69.713,46.952L69.784,46.928L69.854,46.899L69.926,46.878L69.997,46.854L70.07,46.837L70.143,46.817L70.216,46.804L70.289,46.787L70.364,46.779L70.437,46.767L70.512,46.763L70.586,46.754L70.661,46.754L70.735,46.75L81.451,46.75L50,11.623L18.549,46.75Z" style="fill:white;"/>
    </g>
</svg>
